<svg xmlns="http://www.w3.org/2000/svg" width="158.7" height="56.7" viewBox="0 0 158.7 56.7"><style>.st0{fill:#00407a}.st1{fill:#54bceb}.st2{fill:none}.st3{fill:#fff}</style><path class="st0" d="M5.7 5.7h153.1v51H5.7z"/><path class="st1" d="M0 0v56.7h5.7v-51h153V0z"/><path class="st2" d="M17 22.7h130.4v17H17z"/><path class="st3" d="M17 22.7h5.1v5.9l4.5-5.9h6.2l-6 6.6 6.9 10.4h-6.3l-4.1-6.6-1.4 1.6v5H17v-17zm32.1 10.4c0 4.7-2.5 7-7.5 7s-7.5-2.3-7.5-7V22.7h5.1V32c0 1.7 0 3.9 2.5 3.9 2.4 0 2.4-2.2 2.4-3.9v-9.3h5.1v10.4zm7.4-10.4h5.1v12.6h7.2v4.4H56.5v-17zm13.8 0h13.5V27h-8.5v2.1H83v4h-7.7v2.1H84v4.4H70.3V22.7zm30.1 10.4c0 4.7-2.5 7-7.5 7s-7.5-2.3-7.5-7V22.7h5.1V32c0 1.7 0 3.9 2.5 3.9 2.4 0 2.4-2.2 2.4-3.9v-9.3h5.1v10.4zm11.3 6.6H106l-4.9-17h5.1l2.7 10.3 2.7-10.3h5.2l-5.1 17zm5.8-17H131V27h-8.5v2.1h7.7v4h-7.7v2.1h8.7v4.4h-13.7V22.7zm15.1 0h5.2l4.8 9.1v-9.1h4.8v17h-4.9l-5-9.3v9.3h-4.8v-17z"/></svg>