<?xml version="1.0" encoding="utf-8"?>
<!-- Generator: Adobe Illustrator 27.1.1, SVG Export Plug-In . SVG Version: 6.00 Build 0)  -->
<svg version="1.1" xmlns="http://www.w3.org/2000/svg" xmlns:xlink="http://www.w3.org/1999/xlink" x="0px" y="0px"
	 viewBox="0 0 514.33 207.23" style="enable-background:new 0 0 514.33 207.23;" xml:space="preserve">
<style type="text/css">
	.st0{fill:#E6D8BC;}
	.st1{fill:#FBBA27;}
	.st2{fill:#B08728;}
	.st3{fill:#AF8C28;}
	.st4{fill:#F08162;}
	.st5{fill:#318EB0;}
	.st6{fill:#FFFFFF;}
	.st7{fill:#B05B3A;}
	.st8{fill:none;}
	.st9{fill:#020203;}
	.st10{fill:#D8E8F1;}
	.st11{fill:#BE7E11;}
	.st12{fill:#328EB0;}
	.st13{fill:#D68400;}
	.st14{fill:#FAB400;}
	.st15{fill:#C0911F;}
</style>
<g id="Layer_1">
	<g>
		<path class="st14" d="M54.27,100.69L30.9,54.63h-0.54v68.76H11.88V21.48h23.78l26.5,54.9h0.54l27.18-54.9h22.69v101.91H94.09
			V54.63h-0.54l-23.24,46.06H54.27z"/>
		<g>
			<path class="st14" d="M156.18,50.83c10.73,0,19.02,4.62,22.69,11.14h0.54c-0.14-1.09-0.27-2.45-0.27-6.25V53h17.39v70.39h-17.39
				v-3.26c0-3.13,0.14-5.03,0.27-6.52h-0.54c-4.08,7.34-12.77,11.96-23.51,11.96c-20.11,0-34.24-15.35-34.24-37.37
				C121.12,66.18,136.07,50.83,156.18,50.83z M178.46,87.92c0-12.09-8.02-20.52-19.16-20.52c-11.01,0-19.02,8.42-19.02,20.52
				c0,12.23,8.02,20.79,19.02,20.79C170.45,108.71,178.46,100.15,178.46,87.92z"/>
		</g>
		<g>
			<path class="st14" d="M269.36,53v70.39h-19.02V69.31H228.6v54.08h-19.02V53H269.36z"/>
		</g>
		<path class="st12" d="M328.74,68.22h52.99c0.41,1.22,0.68,3.53,0.68,8.02c-0.14,28.81-18.75,49.32-49.46,49.32
			c-30.84,0-51.91-22.15-51.91-53.13c0-30.98,21.74-53.13,51.91-53.13c18.21,0,32.88,8.02,41.58,21.06l-13.04,10.87
			c-6.12-9.38-16.58-14.95-28.54-14.95c-19.29,0-32.34,14.81-32.34,36.01c0,21.33,12.91,36.01,32.34,36.01
			c16.85,0,27.45-9.24,30.17-23.24h-34.38V68.22z"/>
		<path class="st8" d="M391.78,72.43c0-30.98,21.61-53.13,51.91-53.13s51.91,22.15,51.91,53.13c0,30.98-21.61,53.13-51.91,53.13
			C412.84,125.56,391.78,103.41,391.78,72.43z M475.89,72.3c0-21.06-12.77-35.74-32.2-35.74s-32.2,14.68-32.2,35.74
			c0,21.33,12.77,35.87,32.2,35.87S475.89,93.63,475.89,72.3z"/>
	</g>
	<path class="st12" d="M492.43,53.17c-2.04-0.73-4.29-1.12-6.69-1.12c-5.04,0-9.41,1.71-12.64,4.66
		c-3.05-7.95-8.55-13.99-15.86-17.27h-0.01c-0.12-0.06-0.22-0.11-0.34-0.16c-3,3.8-7.65,6.08-13.2,6.08
		c-5.65,0-10.29-2.29-13.27-6.09c-2.31-2.94-3.61-6.79-3.61-11.19c0-2.35,0.38-4.55,1.1-6.53c2.33-6.51,8.22-10.74,15.78-10.74
		s13.46,4.24,15.79,10.77c0.05,0.01,0.09,0.03,0.13,0.04C475.29,26.22,487.11,37.64,492.43,53.17z M493.68,57.32
		c-2.32-1.17-5-1.81-7.94-1.81c-4.63,0-8.64,1.59-11.59,4.32c-3.32,3.08-5.29,7.62-5.29,12.96c0,5.28,1.88,9.77,5.12,12.85
		c-0.04,0.16-0.09,0.31-0.15,0.46v0.01c-2.55,8.06-7.45,14.34-14.11,18.12c2.69,3.26,4.23,7.59,4.23,12.55
		c0,1.91-0.23,3.72-0.67,5.41c14.9-5.61,25.82-17.7,30.18-33.64c0.02-0.07,0.04-0.13,0.05-0.2c5.57-2.71,9.11-8.42,9.11-15.56
		C502.62,65.71,499.16,60.06,493.68,57.32z M456.92,105.63c-2.99-3.83-7.66-6.13-13.23-6.13c-5.59,0-10.27,2.32-13.26,6.16h-0.01
		c-0.11-0.05-0.22-0.1-0.33-0.15c-7.16-3.19-12.59-9.03-15.69-16.76c-3.25,3.02-7.66,4.77-12.76,4.77c-2.4,0-4.63-0.37-6.65-1.07
		c5.36,15.35,17.07,26.61,32.85,31.07c0.05,0.02,0.09,0.03,0.14,0.04c2.35,6.37,8.12,10.5,15.71,10.5c7.48,0,13.34-4.16,15.72-10.58
		c0.75-2.03,1.16-4.28,1.16-6.7C460.57,112.4,459.24,108.57,456.92,105.63z M427.62,40.66c-2.68-3.27-4.19-7.61-4.19-12.58
		c0-1.85,0.22-3.61,0.63-5.26c-15.13,5.68-26.16,18.04-30.4,34.32c-0.02,0.07-0.04,0.15-0.06,0.23c-5.42,2.75-8.84,8.38-8.84,15.42
		c0,7.11,3.42,12.8,8.97,15.52c2.3,1.14,4.97,1.76,7.91,1.76c4.68,0,8.72-1.62,11.67-4.41c3.27-3.08,5.21-7.58,5.21-12.87
		c0-5.38-2-9.94-5.37-13.02c0.04-0.14,0.08-0.29,0.13-0.43C415.79,51.05,420.78,44.54,427.62,40.66z"/>
	<g>
		<path class="st12" d="M172.98,157.36c-0.92-0.34-2.15-0.24-3.05,0.24c-0.52,0.28-1.31,1.1-1.58,1.64
			c-0.74,1.51-0.46,3.16,0.72,4.35c0.75,0.76,1.63,1.13,2.65,1.13c2.1-0.01,3.79-1.69,3.79-3.78c0-1.01-0.39-1.96-1.08-2.66
			C174,157.84,173.61,157.59,172.98,157.36z"/>
		<path class="st12" d="M159.37,167.36c-0.62-0.12-1.92-0.11-2.52,0.01c-2.76,0.6-4.77,2.93-4.98,5.8c-0.11,1.44,0.37,3,1.29,4.21
			c2.02,2.64,5.83,3.25,8.58,1.35c1.17-0.81,2.13-2.18,2.52-3.59c0.21-0.8,0.21-2.38,0-3.18
			C163.61,169.58,161.75,167.83,159.37,167.36z"/>
		<path class="st12" d="M118.39,156.01c-4.06-7.5-11.78-12.19-21.37-12.19c-0.58,0-1.15,0.01-1.7,0.05
			c-8.79,0.51-15.86,5.09-19.67,12.14c-2,3.68-3.11,8.05-3.11,12.86c0,4.81,1.08,9.17,3.06,12.85c3.76,7.05,10.77,11.63,19.71,12.14
			c0.55,0.04,1.13,0.05,1.71,0.05c9.58,0,17.32-4.69,21.38-12.19h19.49c-1.98-3.68-3.06-8.04-3.06-12.85
			c0-4.81,1.11-9.19,3.11-12.86H118.39z M89.83,156.2c0.08-0.85,0.86-1.63,1.71-1.71c0.76-0.07,1.53-0.02,2.3-0.02
			c0.18,0,0.29-0.05,0.4-0.2c1.06-1.48,3.23-1.47,4.27,0.02c0.09,0.13,0.19,0.19,0.35,0.18c0.68-0.01,1.37-0.01,2.05,0
			c0.98,0.01,1.77,0.65,1.97,1.6c0.03,0.13,0.04,0.27,0.05,0.41c0.01,0.4,0,0.8,0,1.19c0,0.49-0.28,0.76-0.76,0.76
			c-1.94,0-3.87,0-5.81,0c-1.92,0-3.85,0-5.77,0c-0.51,0-0.79-0.27-0.78-0.78C89.81,157.17,89.78,156.69,89.83,156.2z
			 M107.78,183.75c-0.31,0.44-0.75,0.7-1.27,0.81c-6.76,0-13.52,0-20.28,0c-0.22-0.06-0.44-0.12-0.64-0.24
			c-0.53-0.32-0.85-0.78-0.98-1.39c0-8.51,0-17.01,0-25.52c0.01-0.04,0.03-0.09,0.04-0.13c0.24-0.83,0.78-1.34,1.64-1.47
			c0.55-0.08,1.12-0.04,1.68-0.02c0.33,0.01,0.57,0.31,0.57,0.65c0,0.4,0,0.8,0,1.19c0,0.16,0.01,0.33,0.04,0.49
			c0.19,0.94,0.97,1.58,1.93,1.58c3.92,0,7.83,0,11.75,0c0.11,0,0.22-0.02,0.33-0.03c0.83-0.14,1.5-0.87,1.58-1.71
			c0.05-0.5,0.01-1,0.02-1.5c0.01-0.39,0.28-0.68,0.67-0.68c0.46,0,0.93-0.01,1.39,0c1.01,0.02,1.88,0.91,1.88,1.91
			c0,0.91-0.01,1.82,0.01,2.73c0.01,0.33-0.11,0.58-0.34,0.81c-1.69,1.68-3.38,3.37-5.06,5.05c-1.91,1.91-3.81,3.81-5.72,5.72
			c-0.28,0.28-0.49,0.6-0.59,0.99c-0.43,1.74-0.87,3.47-1.3,5.21c-0.07,0.26-0.08,0.53-0.03,0.79c0.22,1.17,1.28,1.84,2.43,1.55
			c1.68-0.42,3.36-0.85,5.05-1.26c0.44-0.11,0.81-0.32,1.13-0.64c1.08-1.08,2.16-2.16,3.24-3.24c0.23-0.23,0.48-0.3,0.78-0.18
			c0.27,0.1,0.4,0.34,0.4,0.67c0,2.25,0,4.49,0,6.74C108.14,183.05,108.02,183.42,107.78,183.75z M97.78,173.79
			c1.96,0.81,3.35,2.19,4.14,4.16c0.07,0.18,0.07,0.18-0.12,0.23c-1.52,0.38-3.04,0.76-4.57,1.14c-0.48,0.12-0.88-0.18-0.88-0.75
			c0-0.11,0.07-0.31,0.12-0.5c0.34-1.39,0.69-2.77,1.04-4.15C97.57,173.71,97.57,173.7,97.78,173.79z M112.62,167.97
			c-3.13,3.12-6.25,6.25-9.38,9.38c-0.13,0.13-0.14,0.13-0.21-0.04c-0.93-2.15-2.46-3.7-4.62-4.62c-0.17-0.07-0.17-0.08-0.02-0.24
			c2.48-2.48,4.95-4.95,7.43-7.43c0.64-0.64,1.27-1.27,1.91-1.91c0.04-0.04,0.08-0.09,0.14-0.11c0.07,0.01,0.1,0.06,0.14,0.1
			c1.11,1.1,2.21,2.21,3.31,3.31c0.44,0.44,0.87,0.88,1.31,1.31C112.71,167.82,112.71,167.87,112.62,167.97z M115.02,165.55
			c-0.42,0.43-0.85,0.85-1.27,1.28c-0.09,0.09-0.15,0.09-0.24,0c-1.55-1.55-3.09-3.1-4.64-4.64c-0.07-0.07-0.12-0.12-0.02-0.21
			c0.5-0.49,0.96-1.02,1.5-1.47c1.02-0.83,2.17-1.04,3.4-0.58c1.22,0.46,1.95,1.37,2.2,2.65c0.04,0.19,0.05,0.38,0.04,0.58
			C115.99,164.09,115.66,164.89,115.02,165.55z"/>
		<path class="st12" d="M52.68,156.01c-4.06-7.5-11.78-12.19-21.37-12.19c-0.58,0-1.15,0.01-1.7,0.05
			c-13.39,0.79-22.78,10.98-22.78,25c0,14.02,9.16,24.2,22.76,24.99c0.57,0.04,1.13,0.05,1.71,0.05c9.58,0,17.32-4.69,21.38-12.19
			h19.48c-1.96-3.68-3.04-8.04-3.04-12.85c0-4.81,1.11-9.19,3.11-12.86H52.68z M27.25,149.34c3.4,0,5.82,2.48,5.82,5.96
			c0,2.17-0.94,3.95-2.48,4.98c0-0.81,0-1.62,0-2.43c0-0.24-0.01-0.47-0.04-0.7c-0.19-1.68-1.67-3-3.36-3
			c-0.26,0-0.52,0.03-0.77,0.09c-1.53,0.36-2.6,1.71-2.62,3.27c-0.01,0.4,0,0.8,0,1.2v1.51c-1.48-1.04-2.36-2.79-2.36-4.92
			C21.43,151.82,23.85,149.34,27.25,149.34z M42.73,172.95c-0.01,0.47-0.01,0.93-0.04,1.39c-0.02,0.42-0.05,0.85-0.08,1.27
			c-0.02,0.24-0.04,0.48-0.06,0.72c-0.14,1.52-0.39,3.01-0.87,4.46c-0.24,0.72-0.5,1.44-0.75,2.17c-0.26,0.74-0.47,1.5-0.6,2.28
			c-0.06,0.36-0.11,0.72-0.14,1.09c-0.02,0.32-0.06,0.64-0.09,0.97c-0.01,0.13-0.04,0.26-0.09,0.39c-0.1,0.26-0.28,0.43-0.55,0.5
			c-0.22,0.06-0.44,0.08-0.66,0.08h-1.5c-0.73,0-1.46,0-2.19,0.02c-1.01,0.02-2.03,0.01-3.04,0.05c-1.32,0.05-2.64,0.03-3.96,0.05
			c-0.37,0.01-0.74,0.03-1.11,0.03H27c-0.26,0-0.53-0.02-0.79-0.04c-0.09-0.01-0.18-0.03-0.27-0.06c-0.18-0.06-0.31-0.19-0.38-0.37
			c-0.04-0.11-0.06-0.22-0.07-0.34c-0.04-0.33-0.04-0.66-0.05-0.99c0-0.52-0.05-1.04-0.09-1.56c-0.03-0.49-0.09-0.97-0.16-1.46
			c-0.16-1.06-0.46-2.07-0.99-3.01c-0.27-0.47-0.52-0.96-0.78-1.44c-0.46-0.84-0.96-1.65-1.46-2.46c-0.86-1.39-1.75-2.75-2.64-4.11
			c-0.27-0.41-0.53-0.82-0.79-1.24c-0.24-0.37-0.43-0.77-0.58-1.18c-0.13-0.37-0.21-0.75-0.19-1.15c0.01-0.18,0.05-0.35,0.12-0.51
			c0.13-0.28,0.35-0.46,0.64-0.54c0.12-0.03,0.24-0.05,0.36-0.05c0.16,0,0.32,0.03,0.48,0.07c0.4,0.1,0.76,0.28,1.11,0.5
			c0.18,0.12,0.36,0.24,0.53,0.37c0.79,0.61,1.61,1.17,2.43,1.75c0.29,0.2,0.58,0.41,0.88,0.61c0.11,0.07,0.22,0.14,0.34,0.22
			c0.03,0.02,0.07,0.04,0.11,0.05c0.02,0.01,0.04,0.01,0.06,0.01c0.07,0,0.11-0.04,0.12-0.12c0.01-0.07,0.01-0.13,0.01-0.2
			c0-3.44,0-6.87-0.01-10.31v-1.67c0-0.55,0-1.1,0-1.64c0.01-1.03,0.73-1.92,1.73-2.16c0.17-0.04,0.34-0.06,0.51-0.06
			c1.12,0,2.09,0.86,2.22,1.98c0.02,0.19,0.03,0.38,0.03,0.57c0,1.01,0,2.01,0,3.02c0,1.8,0.01,3.6,0.01,5.4v0.27
			c0.07-0.03,0.07-0.09,0.08-0.13c0.39-0.87,1.06-1.37,2-1.46c0.06-0.01,0.12-0.01,0.18-0.01c0.38,0,0.74,0.12,1.08,0.32
			c0.64,0.39,1.01,0.95,1.09,1.69c0.02,0.18,0.03,0.35,0.03,0.52c0,0.07-0.01,0.14,0.02,0.22c0.07-0.03,0.07-0.09,0.09-0.14
			c0.4-0.83,1.07-1.27,1.98-1.34c0.03,0,0.07,0,0.1,0c0.18,0,0.36,0.03,0.54,0.08c1.12,0.3,1.67,1.32,1.67,2.11
			c0,0.32,0,0.65,0,1.02c0.05-0.12,0.09-0.19,0.12-0.26c0.23-0.52,0.6-0.92,1.12-1.16c0.32-0.15,0.65-0.22,0.96-0.22
			c0.43,0,0.86,0.14,1.26,0.42c0.63,0.43,0.95,1.06,0.97,1.82C42.75,170.99,42.75,171.97,42.73,172.95z"/>
		<path class="st12" d="M184.1,156.01c-4.06-7.5-11.78-12.19-21.37-12.19c-0.58,0-1.15,0.01-1.7,0.05
			c-8.79,0.51-15.86,5.09-19.67,12.14c-2,3.68-3.11,8.05-3.11,12.86c0,4.81,1.08,9.17,3.04,12.85c3.77,7.05,10.78,11.63,19.72,12.14
			c0.57,0.04,1.13,0.05,1.71,0.05c9.58,0,17.32-4.69,21.38-12.19h19.48c-1.96-3.68-3.04-8.04-3.04-12.85
			c0-4.81,1.11-9.19,3.11-12.86H184.1z M170.04,173.66c-0.1,0.09-0.95,0.32-2.55,0.69c-0.12,0.03-0.15,0.1-0.19,0.44
			c-0.03,0.22-0.1,0.62-0.17,0.89c-0.07,0.27-0.11,0.5-0.1,0.53c0.02,0.03,0.52,0.39,1.11,0.81c0.74,0.52,1.09,0.81,1.11,0.92
			c0.03,0.11-0.05,0.34-0.25,0.76c-0.36,0.72-0.5,0.92-0.67,0.92c-0.07,0-0.69-0.17-1.37-0.38c-0.68-0.21-1.25-0.36-1.26-0.35
			c-0.07,0.12-0.61,0.76-0.87,1.05l-0.33,0.35l0.55,1.19c0.3,0.65,0.54,1.25,0.54,1.33c0,0.07-0.07,0.2-0.15,0.28
			c-0.33,0.3-1.19,0.83-1.35,0.83s-0.62-0.44-1.72-1.64l-0.3-0.32l-0.64,0.23c-0.34,0.13-0.74,0.25-0.88,0.28
			c-0.29,0.05-0.27,0.01-0.4,1.48c-0.09,1.1-0.15,1.41-0.32,1.48c-0.06,0.02-0.44,0.07-0.85,0.1c-0.6,0.05-0.76,0.05-0.88-0.03
			c-0.12-0.08-0.21-0.34-0.46-1.41c-0.28-1.16-0.33-1.31-0.46-1.33c-0.08-0.01-0.44-0.08-0.78-0.14c-0.35-0.07-0.7-0.13-0.78-0.15
			c-0.11-0.03-0.26,0.15-0.86,1c-0.4,0.56-0.78,1.07-0.83,1.11c-0.19,0.15-0.44,0.09-1.12-0.27c-0.6-0.32-0.67-0.37-0.69-0.55
			c-0.01-0.11,0.15-0.74,0.35-1.41l0.37-1.21l-0.21-0.17c-0.11-0.09-0.44-0.37-0.72-0.61l-0.5-0.44l-1.22,0.56
			c-1.03,0.48-1.25,0.55-1.39,0.5c-0.17-0.06-0.91-1.09-1.01-1.4c-0.05-0.15,0.05-0.26,0.97-1.15l1.02-0.97l-0.17-0.4
			c-0.09-0.22-0.23-0.62-0.31-0.88l-0.14-0.48l-0.42-0.04c-0.23-0.03-0.83-0.08-1.32-0.12c-1.18-0.11-1.17-0.1-1.23-1.12
			c-0.03-0.49-0.02-0.79,0.03-0.88c0.08-0.15,0.19-0.19,1.64-0.54l1.07-0.25l0.05-0.23c0.03-0.19,0.09-0.5,0.3-1.5
			c0.02-0.11-0.17-0.28-1.01-0.86c-0.58-0.4-1.09-0.8-1.15-0.89c-0.1-0.16-0.09-0.19,0.27-0.93c0.25-0.52,0.42-0.78,0.51-0.81
			c0.09-0.03,0.63,0.1,1.43,0.34l1.29,0.38l0.17-0.22c0.09-0.13,0.36-0.43,0.58-0.67c0.23-0.24,0.42-0.48,0.42-0.52
			c0-0.05-0.24-0.61-0.54-1.26c-0.39-0.85-0.53-1.22-0.5-1.33c0.05-0.19,1.27-1.03,1.5-1.03c0.14,0,1.02,0.85,1.76,1.7
			c0.25,0.3,0.17,0.3,1.27-0.08l0.77-0.26l0.11-1.17c0.06-0.64,0.11-1.23,0.11-1.3c0.01-0.08,0.06-0.21,0.13-0.29
			c0.09-0.12,0.22-0.15,0.82-0.2c0.39-0.03,0.74-0.06,0.78-0.07c0.05,0,0.15,0.05,0.23,0.11c0.12,0.09,0.21,0.39,0.46,1.42l0.32,1.3
			l0.58,0.09c0.32,0.04,0.73,0.13,0.91,0.18l0.33,0.09l0.66-0.95c0.86-1.22,0.95-1.32,1.14-1.32c0.23,0,1.48,0.64,1.57,0.81
			c0.06,0.11,0,0.38-0.3,1.38c-0.2,0.68-0.37,1.27-0.37,1.32c0,0.05,0.13,0.18,0.29,0.3c0.15,0.11,0.47,0.38,0.69,0.58l0.42,0.38
			l1.15-0.54c0.64-0.3,1.24-0.54,1.35-0.54c0.2,0,0.25,0.06,0.83,0.9c0.17,0.25,0.31,0.52,0.31,0.59c0,0.14-0.09,0.24-1.29,1.37
			l-0.71,0.68l0.22,0.56c0.13,0.31,0.26,0.7,0.31,0.88c0.05,0.22,0.11,0.32,0.18,0.32c0.07,0.01,0.66,0.06,1.34,0.13
			c1.03,0.09,1.25,0.13,1.35,0.25c0.11,0.11,0.13,0.26,0.17,0.93C170.17,173.48,170.16,173.55,170.04,173.66z M180.35,162.57
			c-0.21,1.08-0.13,1.03-1.66,0.97l-1.19-0.05l-0.23,0.44c-0.12,0.25-0.37,0.64-0.55,0.87l-0.33,0.42l0.51,1.11
			c0.34,0.76,0.49,1.16,0.46,1.25c-0.06,0.18-1.29,1.01-1.51,1.01c-0.13,0-0.37-0.21-1.01-0.87l-0.84-0.88l-0.66,0.17
			c-0.36,0.1-0.78,0.17-0.91,0.17c-0.14,0-0.3,0.02-0.36,0.04c-0.06,0.02-0.28,0.5-0.49,1.09c-0.21,0.58-0.45,1.13-0.53,1.21
			l-0.15,0.16l-0.78-0.15c-0.43-0.08-0.83-0.19-0.9-0.23c-0.11-0.08-0.12-0.2-0.1-1.35l0.02-1.26l-0.47-0.25
			c-0.26-0.14-0.64-0.39-0.84-0.56c-0.21-0.17-0.39-0.3-0.41-0.3c-0.01,0-0.49,0.21-1.05,0.47c-0.97,0.44-1.27,0.53-1.44,0.42
			c-0.15-0.1-0.9-1.29-0.9-1.44c0-0.1,0.26-0.4,0.89-0.99l0.88-0.85l-0.15-0.56c-0.08-0.3-0.17-0.76-0.19-1.01l-0.04-0.46
			l-1.15-0.42c-0.88-0.33-1.16-0.46-1.22-0.58c-0.11-0.22,0.17-1.68,0.35-1.8c0.1-0.07,0.37-0.08,1.33-0.05l1.21,0.04l0.22-0.41
			c0.12-0.22,0.37-0.6,0.55-0.85c0.19-0.25,0.34-0.47,0.34-0.5c0-0.03-0.21-0.51-0.47-1.07c-0.45-0.99-0.52-1.23-0.42-1.39
			c0.11-0.16,1.29-0.9,1.45-0.9c0.12,0,0.37,0.21,1,0.88l0.83,0.88l0.69-0.17c0.38-0.09,0.82-0.17,0.97-0.17
			c0.16,0,0.32-0.04,0.36-0.09c0.03-0.04,0.23-0.55,0.44-1.12c0.22-0.6,0.44-1.09,0.52-1.16c0.17-0.14,0.08-0.14,0.95,0.03
			c1.05,0.21,1.01,0.13,0.95,1.62l-0.04,1.21l0.42,0.21c0.23,0.12,0.63,0.38,0.88,0.56l0.46,0.34l1.03-0.48
			c0.57-0.26,1.12-0.48,1.23-0.48c0.19,0,0.25,0.07,0.64,0.65c0.27,0.4,0.44,0.72,0.44,0.84c0,0.14-0.18,0.35-0.87,1.01l-0.87,0.83
			l0.17,0.7c0.09,0.39,0.19,0.85,0.21,1.03l0.05,0.32l1.07,0.39c0.59,0.22,1.13,0.46,1.21,0.53l0.13,0.14L180.35,162.57z"/>
		<path class="st12" d="M269.36,156.01H249.8c-4.06-7.5-11.78-12.19-21.37-12.19c-0.58,0-1.15,0.01-1.7,0.05
			c-8.79,0.51-15.86,5.09-19.67,12.14c-2,3.68-3.11,8.05-3.11,12.86c0,4.81,1.08,9.17,3.06,12.85c3.76,7.05,10.77,11.63,19.71,12.14
			c0.55,0.04,1.13,0.05,1.71,0.05c9.58,0,17.32-4.69,21.38-12.19h19.49c-1.98-3.68-3.06-8.04-3.06-12.85
			C266.25,164.07,267.36,159.69,269.36,156.01z M221.62,168.87c0,0.38-0.03,0.75-0.09,1.1l10.64,4.85c1.07-1.46,2.78-2.35,4.84-2.35
			c3.52,0,6.02,2.57,6.02,6.17s-2.51,6.17-6.02,6.17c-3.58,0-6.02-2.57-6.02-6.17c0-0.38,0.03-0.75,0.09-1.1l-10.64-4.85
			c-1.07,1.46-2.78,2.35-4.84,2.35c-3.58,0-6.02-2.57-6.02-6.17s2.51-6.17,6.02-6.17c2.07,0,3.78,0.89,4.84,2.35l10.64-4.85
			c-0.05-0.36-0.09-0.72-0.09-1.1c0-3.6,2.51-6.17,6.02-6.17c3.52,0,6.02,2.57,6.02,6.17s-2.51,6.17-6.02,6.17
			c-2.1,0-3.8-0.89-4.86-2.35l-10.62,4.84C221.59,168.12,221.62,168.49,221.62,168.87z"/>
	</g>
	<path class="st14" d="M273.36,156.01c-2,3.68-3.11,8.05-3.11,12.86c0,4.81,1.08,9.17,3.06,12.85h222.92v-25.72H273.36z"/>
</g>
<g id="Guides__x26__margins">
</g>
</svg>
